# xmcd CD Database Entry
#
# Track frame offsets:
# 150
# 19467
# 38187
# 56725
# 75057
# 95780
# 121125
# 140270
# 163402
# 183177
# 193792
# 214492
# 237157
# 263510
# 291830
#
# Disc length: 4149 seconds
#
# Revision: 1
# Processed by: cddbd v1.4PL0 Copyright (c) Steve Scherf et al.
# Submitted via: tcd 2.0b
#
DISCID=d610330f
DTITLE=Freddy Rodriguez - Sacerdocio Genuino
DYEAR=1900
DGENRE=
TTITLE0=Bajo mi Mano
TTITLE1=Diez Millares
TTITLE2=Sal como Gigante
TTITLE3=Aleluya XXI
TTITLE4=Mi Amigo Omnipotnte
TTITLE5=Cada Dia de Mi Vida
TTITLE6=Inagotable Misericordia
TTITLE7=Mis Fuentes
TTITLE8=Tu Aliento
TTITLE9=***
TTITLE10=Guiame a tu Verdad
TTITLE11=Lo Permitiste
TTITLE12=Sacerdocio Genuino
TTITLE13=Despertaste mi Ser
TTITLE14=Bonus Track
EXTD=
EXTT0=
EXTT1=
EXTT2=
EXTT3=
EXTT4=
EXTT5=
EXTT6=
EXTT7=
EXTT8=
EXTT9=
EXTT10=
EXTT11=
EXTT12=
EXTT13=
EXTT14=
PLAYORDER=
